<?xml version="1.0"?><svg id="_图层_1" data-name="图层 1" xmlns="http://www.w3.org/2000/svg" viewBox="0 0 544.81 482.06">
  <path d="M376.26,360c-2-15.03-17.39-35.56-27.76-46.54-28.76-3.45-81.74-21.3-106.03-37.25-10.99-7.33-20.9-16.28-29.35-26.54-11.47-13.69-21.69-30.31-27.89-46.96-55.89-5.86-71.51,20.96-31.73,66.19,13.23,13.42,27.26,26.12,42.63,36.93,31.35,22.05,122.19,71.78,156.05,72.82,7.14.22,15.97-.79,20.78-6.36,2.95-3.42,3.91-7.65,3.29-12.28Z" fill="#cf4638" stroke-width="0"></path>
  <path d="M270.06,222.25c2.1-10.47,16.39-76.68,14.01-82.75-59.03-21.23-137.31-46.21-157,30.43-2.46,9.58-5.99,37.09-1.43,45.75,1.81-1.17,2.04-1.78,2.62-3.33.19-.52.43-1.14.78-1.94,26.79-33.71,105.86-3.23,141.02,11.83Z" fill="#fecd7e" stroke-width="0"></path>
  <path d="M412.74,288.16c-6.46-22.34-32.62-55.97-47.92-73l-14.17-15.17c-14.28,21.12-28.42,42.36-42.41,63.69,23.22,22.55,51.04,49.74,66.55,78.21,3.92,7.89,4.92,10.75,7.5,19.16,11.77-17.76,36.56-51.73,30.46-72.89Z" fill="#fecd7e" stroke-width="0"></path>
</svg>